<svg width="194" height="194" viewBox="0 0 194 194" fill="none" xmlns="http://www.w3.org/2000/svg">
<circle cx="97" cy="97" r="97" fill="black"/>
<path d="M125.469 111.391C124.625 115.672 123.547 119.203 122.234 121.984C120.922 124.734 119.594 126.906 118.25 128.5C116.906 130.094 115.641 131.203 114.453 131.828C113.297 132.453 112.422 132.766 111.828 132.766C110.891 132.766 109.688 132.359 108.219 131.547C106.75 130.734 105.125 129.688 103.344 128.406C101.594 127.125 99.7656 125.688 97.8594 124.094C95.9844 122.469 94.1719 120.859 92.4219 119.266C90.6719 117.672 89.0625 116.172 87.5938 114.766C86.125 113.359 84.9375 112.203 84.0312 111.297L84.4062 122.875L94.2969 128.359L64.5312 130.469L74.5156 121.281L76.25 74.125L64.0625 68.2656C70.1562 67.9219 75.3281 67.6719 79.5781 67.5156C83.8281 67.3281 87.3438 67.2031 90.125 67.1406C92.9062 67.0781 95.0469 67.0469 96.5469 67.0469C98.0469 67.0469 99.1094 67.0469 99.7344 67.0469C101.078 67.0469 102.531 67.1719 104.094 67.4219C105.688 67.6406 107.266 68.0312 108.828 68.5938C110.391 69.125 111.906 69.8125 113.375 70.6562C114.844 71.5 116.141 72.5312 117.266 73.75C118.391 74.9688 119.281 76.3906 119.938 78.0156C120.625 79.6094 120.969 81.4219 120.969 83.4531C120.969 83.9219 120.906 84.5781 120.781 85.4219C120.688 86.2344 120.469 87.1875 120.125 88.2812C119.781 89.3438 119.266 90.4844 118.578 91.7031C117.891 92.8906 116.953 94.0938 115.766 95.3125C114.609 96.5 113.172 97.6562 111.453 98.7812C109.734 99.9062 107.656 100.906 105.219 101.781C102.812 102.656 100 103.375 96.7812 103.938C93.5938 104.469 89.9375 104.766 85.8125 104.828C87.8438 106.359 90.0469 108 92.4219 109.75C94.7969 111.469 97.2031 113.062 99.6406 114.531C102.078 115.969 104.469 117.172 106.812 118.141C109.156 119.078 111.344 119.547 113.375 119.547C114.344 119.547 115.375 119.438 116.469 119.219C117.594 119 118.688 118.594 119.75 118C120.844 117.375 121.875 116.547 122.844 115.516C123.844 114.453 124.719 113.078 125.469 111.391ZM107.422 85.6562C107.422 84.6875 107.344 83.7188 107.188 82.75C107.031 81.7812 106.703 80.8594 106.203 79.9844C105.703 79.1094 104.984 78.2812 104.047 77.5C103.109 76.7188 101.844 76.0469 100.25 75.4844C98.6875 74.9219 96.75 74.4844 94.4375 74.1719C92.125 73.8281 89.3594 73.6562 86.1406 73.6562C85.6406 73.6562 85.1562 73.6562 84.6875 73.6562C84.2188 73.6562 83.7344 73.6875 83.2344 73.75L83.7031 98.7812C85.6719 98.75 87.625 98.5938 89.5625 98.3125C91.5 98 93.3438 97.5781 95.0938 97.0469C96.8438 96.5156 98.4688 95.875 99.9688 95.125C101.5 94.375 102.812 93.5312 103.906 92.5938C105 91.625 105.859 90.5625 106.484 89.4062C107.109 88.25 107.422 87 107.422 85.6562Z" fill="white"/>
</svg>
